Hermit-Bold.ufo
<glyph name="plus" format="1">
  <advance width="618"/>
  <unicode hex="002B"/>
  <note>
    plus
  </note>
  <outline>
    <contour>
      <point x="374" y="70" type="line"/>
      <point x="374" y="275" type="line"/>
      <point x="560" y="275" type="line"/>
      <point x="560" y="385" type="line"/>
      <point x="374" y="385" type="line"/>
      <point x="374" y="590" type="line"/>
      <point x="244" y="590" type="line"/>
      <point x="244" y="385" type="line"/>
      <point x="58" y="385" type="line"/>
      <point x="58" y="275" type="line"/>
      <point x="244" y="275" type="line"/>
      <point x="244" y="70" type="line"/>
    </contour>
  </outline>
</glyph>
<glyph name="hyphen" format="1">
  <advance width="618"/>
  <unicode hex="002D"/>
  <note>
    hyphen
  </note>
  <outline>
    <contour>
      <point x="560" y="275" type="line"/>
      <point x="560" y="385" type="line"/>
      <point x="58" y="385" type="line"/>
      <point x="58" y="275" type="line"/>
    </contour>
  </outline>
</glyph>
<glyph name="slash" format="1">
  <advance width="618"/>
  <unicode hex="002F"/>
  <note>
    slash
  </note>
  <outline>
    <contour>
      <point x="230" y="-110" type="line"/>
      <point x="524" y="750" type="line"/>
      <point x="388" y="750" type="line"/>
      <point x="94" y="-110" type="line"/>
    </contour>
  </outline>
</glyph>
<glyph name="zero" format="1">
  <advance width="618"/>
  <unicode hex="0030"/>
  <note>
    zero
  </note>
  <outline>
    <contour>
      <point x="449" y="0"/>
      <point x="560" y="0"/>
      <point x="560" y="375" type="curve" smooth="yes"/>
      <point x="560" y="750"/>
      <point x="449" y="750"/>
      <point x="309" y="750" type="curve" smooth="yes"/>
      <point x="169" y="750"/>
      <point x="58" y="750"/>
      <point x="58" y="375" type="curve" smooth="yes"/>
      <point x="58" y="0"/>
      <point x="169" y="0"/>
      <point x="309" y="0" type="curve" smooth="yes"/>
    </contour>
    <contour>
      <point x="253" y="110"/>
      <point x="239" y="114"/>
      <point x="222" y="140" type="curve"/>
      <point x="429" y="444" type="line"/>
      <point x="430" y="422"/>
      <point x="430" y="400"/>
      <point x="430" y="375" type="curve" smooth="yes"/>
      <point x="430" y="149"/>
      <point x="410" y="110"/>
      <point x="309" y="110" type="curve" smooth="yes"/>
    </contour>
    <contour>
      <point x="188" y="327"/>
      <point x="188" y="350"/>
      <point x="188" y="375" type="curve" smooth="yes"/>
      <point x="188" y="601"/>
      <point x="208" y="640"/>
      <point x="309" y="640" type="curve" smooth="yes"/>
      <point x="366" y="640"/>
      <point x="379" y="636"/>
      <point x="396" y="610" type="curve"/>
      <point x="189" y="305" type="line"/>
    </contour>
  </outline>
</glyph>
<glyph name="five" format="1">
  <advance width="618"/>
  <unicode hex="0035"/>
  <note>
    five
  </note>
  <outline>
    <contour>
      <point x="308" y="0" type="line" smooth="yes"/>
      <point x="449" y="0"/>
      <point x="560" y="101"/>
      <point x="560" y="237" type="curve" smooth="yes"/>
      <point x="560" y="386"/>
      <point x="462" y="475"/>
      <point x="308" y="475" type="curve" smooth="yes"/>
      <point x="188" y="475" type="line"/>
      <point x="188" y="640" type="line"/>
      <point x="494" y="640" type="line"/>
      <point x="494" y="750" type="line"/>
      <point x="58" y="750" type="line"/>
      <point x="58" y="365" type="line"/>
      <point x="308" y="365" type="line" smooth="yes"/>
      <point x="388" y="365"/>
      <point x="430" y="326"/>
      <point x="430" y="237" type="curve" smooth="yes"/>
      <point x="430" y="154"/>
      <point x="384" y="110"/>
      <point x="308" y="110" type="curve" smooth="yes"/>
      <point x="58" y="110" type="line"/>
      <point x="58" y="0" type="line"/>
    </contour>
  </outline>
</glyph>
<glyph name="nine" format="1">
  <advance width="618"/>
  <unicode hex="0039"/>
  <note>
    nine
  </note>
  <outline>
    <contour>
      <point x="560" y="0" type="line"/>
      <point x="560" y="513" type="line" smooth="yes"/>
      <point x="560" y="660"/>
      <point x="461" y="750"/>
      <point x="309" y="750" type="curve" smooth="yes"/>
      <point x="157" y="750"/>
      <point x="58" y="660"/>
      <point x="58" y="513" type="curve" smooth="yes"/>
      <point x="58" y="366"/>
      <point x="158" y="275"/>
      <point x="309" y="275" type="curve" smooth="yes"/>
      <point x="352" y="275"/>
      <point x="398" y="289"/>
      <point x="430" y="306" type="curve"/>
      <point x="430" y="0" type="line"/>
    </contour>
    <contour>
      <point x="231" y="385"/>
      <point x="188" y="427"/>
      <point x="188" y="513" type="curve" smooth="yes"/>
      <point x="188" y="598"/>
      <point x="231" y="640"/>
      <point x="309" y="640" type="curve" smooth="yes"/>
      <point x="387" y="640"/>
      <point x="430" y="598"/>
      <point x="430" y="513" type="curve" smooth="yes"/>
      <point x="430" y="427"/>
      <point x="387" y="385"/>
      <point x="309" y="385" type="curve" smooth="yes"/>
    </contour>
  </outline>
</glyph>
<glyph name="question" format="1">
  <advance width="618"/>
  <unicode hex="003F"/>
  <note>
    question
  </note>
  <outline>
    <contour>
      <point x="375" y="240" type="line"/>
      <point x="375" y="366" type="line"/>
      <point x="488" y="366"/>
      <point x="560" y="416"/>
      <point x="560" y="557" type="curve" smooth="yes"/>
      <point x="560" y="750"/>
      <point x="449" y="750"/>
      <point x="309" y="750" type="curve" smooth="yes"/>
      <point x="167" y="750"/>
      <point x="54" y="750"/>
      <point x="58" y="547" type="curve"/>
      <point x="188" y="547" type="line"/>
      <point x="186" y="640"/>
      <point x="216" y="640"/>
      <point x="309" y="640" type="curve" smooth="yes"/>
      <point x="399" y="640"/>
      <point x="430" y="640"/>
      <point x="430" y="557" type="curve" smooth="yes"/>
      <point x="430" y="476"/>
      <point x="401" y="475"/>
      <point x="314" y="475" type="curve" smooth="yes"/>
      <point x="245" y="475" type="line"/>
      <point x="245" y="240" type="line"/>
    </contour>
    <contour>
      <point x="365" y="-100"/>
      <point x="419" y="-50"/>
      <point x="419" y="0" type="curve" smooth="yes"/>
      <point x="419" y="50"/>
      <point x="365" y="100"/>
      <point x="309" y="100" type="curve" smooth="yes"/>
      <point x="253" y="100"/>
      <point x="199" y="51"/>
      <point x="199" y="0" type="curve" smooth="yes"/>
      <point x="199" y="-51"/>
      <point x="253" y="-100"/>
      <point x="309" y="-100" type="curve" smooth="yes"/>
    </contour>
  </outline>
</glyph>
<glyph name="at" format="1">
  <advance width="618"/>
  <unicode hex="0040"/>
  <note>
    at
  </note>
  <outline>
    <contour>
      <point x="401" y="0"/>
      <point x="558" y="0"/>
      <point x="560" y="170" type="curve"/>
      <point x="430" y="170" type="line"/>
      <point x="430" y="109"/>
      <point x="403" y="110"/>
      <point x="311" y="110" type="curve" smooth="yes"/>
      <point x="309" y="110" type="line" smooth="yes"/>
      <point x="227" y="110"/>
      <point x="188" y="184"/>
      <point x="188" y="375" type="curve" smooth="yes"/>
      <point x="188" y="566"/>
      <point x="227" y="640"/>
      <point x="309" y="640" type="curve" smooth="yes"/>
      <point x="311" y="640" type="line" smooth="yes"/>
      <point x="397" y="640"/>
      <point x="430" y="636"/>
      <point x="430" y="590" type="curve" smooth="yes"/>
      <point x="430" y="532" type="line"/>
      <point x="429" y="532" type="line" smooth="yes"/>
      <point x="259" y="532"/>
      <point x="199" y="493"/>
      <point x="199" y="375" type="curve" smooth="yes"/>
      <point x="199" y="265"/>
      <point x="269" y="218"/>
      <point x="429" y="218" type="curve" smooth="yes"/>
      <point x="560" y="218" type="line"/>
      <point x="560" y="590" type="line" smooth="yes"/>
      <point x="560" y="750"/>
      <point x="399" y="750"/>
      <point x="309" y="750" type="curve" smooth="yes"/>
      <point x="136" y="750"/>
      <point x="58" y="638"/>
      <point x="58" y="375" type="curve" smooth="yes"/>
      <point x="58" y="112"/>
      <point x="136" y="0"/>
      <point x="309" y="0" type="curve" smooth="yes"/>
    </contour>
    <contour>
      <point x="342" y="328"/>
      <point x="329" y="333"/>
      <point x="329" y="375" type="curve" smooth="yes"/>
      <point x="329" y="414"/>
      <point x="348" y="422"/>
      <point x="423" y="422" type="curve" smooth="yes"/>
      <point x="430" y="422" type="line"/>
      <point x="430" y="328" type="line"/>
      <point x="426" y="328" type="line" smooth="yes"/>
    </contour>
  </outline>
</glyph>
<glyph name="E" format="1">
  <advance width="618"/>
  <unicode hex="0045"/>
  <note>
    E
  </note>
  <outline>
    <contour>
      <point x="560" y="0" type="line"/>
      <point x="560" y="110" type="line"/>
      <point x="188" y="110" type="line"/>
      <point x="188" y="320" type="line"/>
      <point x="374" y="320" type="line"/>
      <point x="374" y="430" type="line"/>
      <point x="188" y="430" type="line"/>
      <point x="188" y="640" type="line"/>
      <point x="560" y="640" type="line"/>
      <point x="560" y="750" type="line"/>
      <point x="58" y="750" type="line"/>
      <point x="58" y="0" type="line"/>
    </contour>
    <contour>
      <point x="539" y="0" type="move" name="ogonek"/>
    </contour>
    <contour>
      <point x="309" y="750" type="move" name="top"/>
    </contour>
    <contour>
      <point x="20" y="750" type="move" name="topleft"/>
    </contour>
    <contour>
      <point x="309" y="0" type="move" name="bottom"/>
    </contour>
  </outline>
</glyph>
<glyph name="G" format="1">
  <advance width="618"/>
  <unicode hex="0047"/>
  <note>
    G
  </note>
  <outline>
    <contour>
      <point x="399" y="0"/>
      <point x="560" y="0"/>
      <point x="560" y="170" type="curve" smooth="yes"/>
      <point x="560" y="285" type="line" smooth="yes"/>
      <point x="560" y="385"/>
      <point x="450" y="385"/>
      <point x="450" y="385" type="curve" smooth="yes"/>
      <point x="289" y="385" type="line"/>
      <point x="289" y="275" type="line"/>
      <point x="430" y="275" type="line"/>
      <point x="430" y="170" type="line" smooth="yes"/>
      <point x="430" y="124"/>
      <point x="397" y="110"/>
      <point x="311" y="110" type="curve" smooth="yes"/>
      <point x="309" y="110" type="line" smooth="yes"/>
      <point x="227" y="110"/>
      <point x="188" y="193"/>
      <point x="188" y="375" type="curve" smooth="yes"/>
      <point x="188" y="557"/>
      <point x="227" y="640"/>
      <point x="309" y="640" type="curve" smooth="yes"/>
      <point x="311" y="640" type="line" smooth="yes"/>
      <point x="403" y="640"/>
      <point x="430" y="624"/>
      <point x="430" y="570" type="curve"/>
      <point x="560" y="570" type="line"/>
      <point x="560" y="750"/>
      <point x="401" y="750"/>
      <point x="309" y="750" type="curve" smooth="yes"/>
      <point x="136" y="750"/>
      <point x="58" y="628"/>
      <point x="58" y="375" type="curve" smooth="yes"/>
      <point x="58" y="122"/>
      <point x="136" y="0"/>
      <point x="309" y="0" type="curve" smooth="yes"/>
    </contour>
    <contour>
      <point x="309" y="750" type="move" name="top"/>
    </contour>
    <contour>
      <point x="309" y="0" type="move" name="bottom"/>
    </contour>
  </outline>
</glyph>
<glyph name="K" format="1">
  <advance width="618"/>
  <unicode hex="004B"/>
  <note>
    K
  </note>
  <outline>
    <contour>
      <point x="193" y="0" type="line"/>
      <point x="309" y="230" type="line"/>
      <point x="426" y="0" type="line"/>
      <point x="565" y="0" type="line"/>
      <point x="379" y="375" type="line"/>
      <point x="565" y="750" type="line"/>
      <point x="426" y="750" type="line"/>
      <point x="188" y="269" type="line"/>
      <point x="188" y="750" type="line"/>
      <point x="58" y="750" type="line"/>
      <point x="58" y="0" type="line"/>
    </contour>
    <contour>
      <point x="309" y="750" type="move" name="top"/>
    </contour>
    <contour>
      <point x="309" y="0" type="move" name="bottom"/>
    </contour>
  </outline>
</glyph>
<glyph name="Q" format="1">
  <advance width="618"/>
  <unicode hex="0051"/>
  <note>
    Q
  </note>
  <outline>
    <contour>
      <point x="341" y="0"/>
      <point x="377" y="14"/>
      <point x="408" y="36" type="curve"/>
      <point x="426" y="0" type="line"/>
      <point x="560" y="0" type="line"/>
      <point x="497" y="140" type="line"/>
      <point x="539" y="214"/>
      <point x="560" y="296"/>
      <point x="560" y="375" type="curve" smooth="yes"/>
      <point x="560" y="750"/>
      <point x="449" y="750"/>
      <point x="309" y="750" type="curve" smooth="yes"/>
      <point x="169" y="750"/>
      <point x="58" y="750"/>
      <point x="58" y="375" type="curve" smooth="yes"/>
      <point x="58" y="0"/>
      <point x="169" y="0"/>
      <point x="309" y="0" type="curve" smooth="yes"/>
    </contour>
    <contour>
      <point x="209" y="110"/>
      <point x="188" y="148"/>
      <point x="188" y="375" type="curve" smooth="yes"/>
      <point x="188" y="602"/>
      <point x="209" y="640"/>
      <point x="309" y="640" type="curve" smooth="yes"/>
      <point x="409" y="640"/>
      <point x="430" y="601"/>
      <point x="430" y="375" type="curve" smooth="yes"/>
      <point x="430" y="341"/>
      <point x="428" y="319"/>
      <point x="425" y="290" type="curve"/>
      <point x="418" y="305" type="line"/>
      <point x="278" y="305" type="line"/>
      <point x="347" y="161"/>
      <point x="375" y="105"/>
      <point x="363" y="129" type="curve"/>
      <point x="348" y="116"/>
      <point x="332" y="110"/>
      <point x="309" y="110" type="curve" smooth="yes"/>
    </contour>
    <contour>
      <point x="309" y="750" type="move" name="top"/>
    </contour>
    <contour>
      <point x="309" y="0" type="move" name="bottom"/>
    </contour>
  </outline>
</glyph>
<glyph name="T" format="1">
  <advance width="618"/>
  <unicode hex="0054"/>
  <note>
    T
  </note>
  <outline>
    <contour>
      <point x="374" y="0" type="line"/>
      <point x="374" y="650" type="line"/>
      <point x="560" y="650" type="line"/>
      <point x="560" y="750" type="line"/>
      <point x="58" y="750" type="line"/>
      <point x="58" y="650" type="line"/>
      <point x="244" y="650" type="line"/>
      <point x="244" y="0" type="line"/>
    </contour>
    <contour>
      <point x="309" y="70" type="move" name="center"/>
    </contour>
    <contour>
      <point x="309" y="0" type="move" name="bottom"/>
    </contour>
    <contour>
      <point x="309" y="750" type="move" name="top"/>
    </contour>
  </outline>
</glyph>
<glyph name="W" format="1">
  <advance width="618"/>
  <unicode hex="0057"/>
  <note>
    W
  </note>
  <outline>
    <contour>
      <point x="243" y="0" type="line"/>
      <point x="309" y="264" type="line"/>
      <point x="376" y="0" type="line"/>
      <point x="502" y="0" type="line"/>
      <point x="561" y="750" type="line"/>
      <point x="430" y="750" type="line"/>
      <point x="402" y="313" type="line"/>
      <point x="360" y="510" type="line"/>
      <point x="258" y="510" type="line"/>
      <point x="216" y="316" type="line"/>
      <point x="188" y="750" type="line"/>
      <point x="57" y="750" type="line"/>
      <point x="116" y="0" type="line"/>
    </contour>
    <contour>
      <point x="309" y="750" type="move" name="top"/>
    </contour>
    <contour>
      <point x="309" y="0" type="move" name="bottom"/>
    </contour>
  </outline>
</glyph>
<glyph name="bracketright" format="1">
  <advance width="618"/>
  <unicode hex="005D"/>
  <note>
    bracketright
  </note>
  <outline>
    <contour>
      <point x="520" y="-110" type="line"/>
      <point x="520" y="750" type="line"/>
      <point x="97" y="750" type="line"/>
      <point x="97" y="640" type="line"/>
      <point x="390" y="640" type="line"/>
      <point x="390" y="0" type="line"/>
      <point x="97" y="0" type="line"/>
      <point x="97" y="-110" type="line"/>
    </contour>
  </outline>
</glyph>
<glyph name="asciicircum" format="1">
  <advance width="618"/>
  <unicode hex="005E"/>
  <note>
    asciicircum
  </note>
  <outline>
    <contour>
      <point x="230" y="365" type="line"/>
      <point x="308" y="566" type="line"/>
      <point x="388" y="365" type="line"/>
      <point x="524" y="365" type="line"/>
      <point x="370" y="750" type="line"/>
      <point x="248" y="750" type="line"/>
      <point x="93" y="365" type="line"/>
    </contour>
  </outline>
</glyph>
<glyph name="d" format="1">
  <advance width="618"/>
  <unicode hex="0064"/>
  <note>
    d
  </note>
  <outline>
    <contour>
      <point x="560" y="0" type="line"/>
      <point x="560" y="750" type="line"/>
      <point x="430" y="750" type="line"/>
      <point x="430" y="500" type="line"/>
      <point x="308" y="500" type="line" smooth="yes"/>
      <point x="58" y="500"/>
      <point x="58" y="250"/>
      <point x="58" y="250" type="curve" smooth="yes"/>
      <point x="58" y="250"/>
      <point x="58" y="0"/>
      <point x="308" y="0" type="curve" smooth="yes"/>
    </contour>
    <contour>
      <point x="188" y="110"/>
      <point x="188" y="250"/>
      <point x="188" y="250" type="curve" smooth="yes"/>
      <point x="188" y="250"/>
      <point x="188" y="390"/>
      <point x="308" y="390" type="curve" smooth="yes"/>
      <point x="430" y="390" type="line"/>
      <point x="430" y="110" type="line"/>
      <point x="308" y="110" type="line" smooth="yes"/>
    </contour>
    <contour>
      <point x="309" y="0" type="move" name="bottom"/>
    </contour>
    <contour>
      <point x="309" y="625" type="move" name="top"/>
    </contour>
    <contour>
      <point x="597" y="500" type="move" name="topright"/>
    </contour>
    <contour>
      <point x="462" y="250" type="move" name="center"/>
    </contour>
  </outline>
</glyph>
<glyph name="l" format="1">
  <advance width="618"/>
  <unicode hex="006C"/>
  <note>
    l
  </note>
  <outline>
    <contour>
      <point x="560" y="0" type="line"/>
      <point x="560" y="110" type="line"/>
      <point x="374" y="110" type="line"/>
      <point x="374" y="750" type="line"/>
      <point x="154" y="750" type="line"/>
      <point x="154" y="640" type="line"/>
      <point x="244" y="640" type="line"/>
      <point x="244" y="110" type="line"/>
      <point x="58" y="110" type="line"/>
      <point x="58" y="0" type="line"/>
    </contour>
    <contour>
      <point x="308" y="0" type="move" name="bottom"/>
    </contour>
    <contour>
      <point x="308" y="750" type="move" name="top"/>
    </contour>
    <contour>
      <point x="597" y="500" type="move" name="topright"/>
    </contour>
    <contour>
      <point x="400" y="500" type="move" name="topcaroncombalt"/>
    </contour>
    <contour>
      <point x="308" y="500" type="move" name="center"/>
    </contour>
  </outline>
</glyph>
<glyph name="n" format="1">
  <advance width="618"/>
  <unicode hex="006E"/>
  <note>
    n
  </note>
  <outline>
    <contour>
      <point x="188" y="0" type="line"/>
      <point x="188" y="260" type="line" smooth="yes"/>
      <point x="188" y="386"/>
      <point x="174" y="390"/>
      <point x="309" y="390" type="curve" smooth="yes"/>
      <point x="429" y="390"/>
      <point x="430" y="259"/>
      <point x="430" y="260" type="curve"/>
      <point x="430" y="0" type="line"/>
      <point x="560" y="0" type="line"/>
      <point x="560" y="260" type="line" smooth="yes"/>
      <point x="560" y="261"/>
      <point x="559" y="500"/>
      <point x="309" y="500" type="curve" smooth="yes"/>
      <point x="64" y="500"/>
      <point x="58" y="493"/>
      <point x="58" y="260" type="curve" smooth="yes"/>
      <point x="58" y="0" type="line"/>
    </contour>
    <contour>
      <point x="309" y="500" type="move" name="top"/>
    </contour>
    <contour>
      <point x="309" y="0" type="move" name="bottom"/>
    </contour>
  </outline>
</glyph>
<glyph name="p" format="1">
  <advance width="618"/>
  <unicode hex="0070"/>
  <note>
    p
  </note>
  <outline>
    <contour>
      <point x="188" y="-250" type="line"/>
      <point x="188" y="0" type="line"/>
      <point x="309" y="0" type="line" smooth="yes"/>
      <point x="559" y="0"/>
      <point x="560" y="249"/>
      <point x="560" y="250" type="curve" smooth="yes"/>
      <point x="560" y="251"/>
      <point x="559" y="500"/>
      <point x="309" y="500" type="curve" smooth="yes"/>
      <point x="58" y="500" type="line"/>
      <point x="58" y="-250" type="line"/>
    </contour>
    <contour>
      <point x="188" y="390" type="line"/>
      <point x="309" y="390" type="line" smooth="yes"/>
      <point x="429" y="390"/>
      <point x="430" y="249"/>
      <point x="430" y="250" type="curve" smooth="yes"/>
      <point x="430" y="251"/>
      <point x="429" y="110"/>
      <point x="309" y="110" type="curve" smooth="yes"/>
      <point x="188" y="110" type="line"/>
    </contour>
    <contour>
      <point x="309" y="500" type="move" name="top"/>
    </contour>
    <contour>
      <point x="309" y="0" type="move" name="bottom"/>
    </contour>
  </outline>
</glyph>
<glyph name="q" format="1">
  <advance width="618"/>
  <unicode hex="0071"/>
  <note>
    q
  </note>
  <outline>
    <contour>
      <point x="560" y="-250" type="line"/>
      <point x="560" y="500" type="line"/>
      <point x="309" y="500" type="line" smooth="yes"/>
      <point x="59" y="500"/>
      <point x="58" y="251"/>
      <point x="58" y="250" type="curve" smooth="yes"/>
      <point x="58" y="249"/>
      <point x="59" y="0"/>
      <point x="309" y="0" type="curve" smooth="yes"/>
      <point x="430" y="0" type="line"/>
      <point x="430" y="-250" type="line"/>
    </contour>
    <contour>
      <point x="189" y="110"/>
      <point x="188" y="251"/>
      <point x="188" y="250" type="curve" smooth="yes"/>
      <point x="188" y="249"/>
      <point x="189" y="390"/>
      <point x="309" y="390" type="curve" smooth="yes"/>
      <point x="430" y="390" type="line"/>
      <point x="430" y="110" type="line"/>
      <point x="309" y="110" type="line" smooth="yes"/>
    </contour>
    <contour>
      <point x="309" y="500" type="move" name="top"/>
    </contour>
    <contour>
      <point x="309" y="0" type="move" name="bottom"/>
    </contour>
  </outline>
</glyph>
<glyph name="w" format="1">
  <advance width="618"/>
  <unicode hex="0077"/>
  <note>
    w
  </note>
  <outline>
    <contour>
      <point x="243" y="0" type="line"/>
      <point x="309" y="195" type="line"/>
      <point x="375" y="0" type="line"/>
      <point x="502" y="0" type="line"/>
      <point x="561" y="500" type="line"/>
      <point x="430" y="500" type="line"/>
      <point x="406" y="255" type="line"/>
      <point x="371" y="395" type="line"/>
      <point x="247" y="395" type="line"/>
      <point x="212" y="255" type="line"/>
      <point x="188" y="500" type="line"/>
      <point x="57" y="500" type="line"/>
      <point x="116" y="0" type="line"/>
    </contour>
    <contour>
      <point x="309" y="500" type="move" name="top"/>
    </contour>
    <contour>
      <point x="309" y="0" type="move" name="bottom"/>
    </contour>
  </outline>
</glyph>
<glyph name="x" format="1">
  <advance width="618"/>
  <unicode hex="0078"/>
  <note>
    x
  </note>
  <outline>
    <contour>
      <point x="201" y="0" type="line"/>
      <point x="309" y="143" type="line"/>
      <point x="417" y="0" type="line"/>
      <point x="566" y="0" type="line"/>
      <point x="384" y="250" type="line"/>
      <point x="566" y="500" type="line"/>
      <point x="417" y="500" type="line"/>
      <point x="309" y="357" type="line"/>
      <point x="201" y="500" type="line"/>
      <point x="51" y="500" type="line"/>
      <point x="234" y="250" type="line"/>
      <point x="51" y="0" type="line"/>
    </contour>
    <contour>
      <point x="309" y="500" type="move" name="top"/>
    </contour>
    <contour>
      <point x="309" y="0" type="move" name="bottom"/>
    </contour>
  </outline>
</glyph>
<glyph name="y" format="1">
  <advance width="618"/>
  <unicode hex="0079"/>
  <note>
    y
  </note>
  <outline>
    <contour>
      <point x="281" y="-250" type="line"/>
      <point x="563" y="500" type="line"/>
      <point x="426" y="500" type="line"/>
      <point x="309" y="186" type="line"/>
      <point x="191" y="500" type="line"/>
      <point x="54" y="500" type="line"/>
      <point x="241" y="0" type="line"/>
      <point x="147" y="-250" type="line"/>
    </contour>
    <contour>
      <point x="309" y="500" type="move" name="top"/>
    </contour>
    <contour>
      <point x="309" y="0" type="move" name="bottom"/>
    </contour>
  </outline>
</glyph>
<glyph name="registered" format="1">
  <advance width="618"/>
  <unicode hex="00AE"/>
  <note>
    registered
  </note>
  <outline>
    <contour>
      <point x="617" y="0"/>
      <point x="618" y="308"/>
      <point x="618" y="308" type="curve" smooth="yes"/>
      <point x="618" y="308"/>
      <point x="617" y="617"/>
      <point x="309" y="617" type="curve" smooth="yes"/>
      <point x="1" y="617"/>
      <point x="0" y="308"/>
      <point x="0" y="308" type="curve" smooth="yes"/>
      <point x="0" y="308"/>
      <point x="1" y="0"/>
      <point x="309" y="0" type="curve" smooth="yes"/>
    </contour>
    <contour>
      <point x="105" y="104"/>
      <point x="104" y="308"/>
      <point x="104" y="308" type="curve" smooth="yes"/>
      <point x="104" y="308"/>
      <point x="105" y="514"/>
      <point x="309" y="514" type="curve" smooth="yes"/>
      <point x="513" y="514"/>
      <point x="515" y="308"/>
      <point x="515" y="308" type="curve" smooth="yes"/>
      <point x="515" y="308"/>
      <point x="513" y="104"/>
      <point x="309" y="104" type="curve" smooth="yes"/>
    </contour>
    <contour>
      <point x="230" y="142" type="line"/>
      <point x="230" y="281" type="line"/>
      <point x="283" y="281" type="line"/>
      <point x="381" y="142" type="line"/>
      <point x="452" y="142" type="line"/>
      <point x="351" y="284" type="line"/>
      <point x="369" y="284"/>
      <point x="462" y="320"/>
      <point x="462" y="382" type="curve"/>
      <point x="462" y="382"/>
      <point x="451" y="476"/>
      <point x="309" y="476" type="curve" smooth="yes"/>
      <point x="166" y="476" type="line"/>
      <point x="166" y="142" type="line"/>
    </contour>
    <contour>
      <point x="230" y="418" type="line"/>
      <point x="309" y="418" type="line" smooth="yes"/>
      <point x="397" y="418"/>
      <point x="397" y="382"/>
      <point x="397" y="382" type="curve" smooth="yes"/>
      <point x="397" y="382"/>
      <point x="397" y="346"/>
      <point x="309" y="346" type="curve" smooth="yes"/>
      <point x="230" y="346" type="line"/>
    </contour>
  </outline>
</glyph>
<glyph name="uni00B5" format="1">
  <advance width="618"/>
  <unicode hex="00B5"/>
  <note>
    uni00B5
  </note>
  <outline>
    <contour>
      <point x="188" y="-250" type="line"/>
      <point x="188" y="25" type="line"/>
      <point x="219" y="10"/>
      <point x="261" y="0"/>
      <point x="309" y="0" type="curve" smooth="yes"/>
      <point x="554" y="0"/>
      <point x="560" y="7"/>
      <point x="560" y="240" type="curve" smooth="yes"/>
      <point x="560" y="500" type="line"/>
      <point x="430" y="500" type="line"/>
      <point x="430" y="240" type="line" smooth="yes"/>
      <point x="430" y="114"/>
      <point x="444" y="110"/>
      <point x="309" y="110" type="curve" smooth="yes"/>
      <point x="189" y="110"/>
      <point x="188" y="241"/>
      <point x="188" y="240" type="curve"/>
      <point x="188" y="500" type="line"/>
      <point x="58" y="500" type="line"/>
      <point x="58" y="-250" type="line"/>
    </contour>
  </outline>
</glyph>
<glyph name="Thorn" format="1">
  <advance width="618"/>
  <unicode hex="00DE"/>
  <note>
    Thorn
  </note>
  <outline>
    <contour>
      <point x="188" y="0" type="line"/>
      <point x="188" y="241" type="line"/>
      <point x="309" y="241" type="line" smooth="yes"/>
      <point x="559" y="241"/>
      <point x="560" y="449"/>
      <point x="560" y="450" type="curve" smooth="yes"/>
      <point x="560" y="451"/>
      <point x="559" y="660"/>
      <point x="309" y="660" type="curve" smooth="yes"/>
      <point x="188" y="660" type="line"/>
      <point x="188" y="750" type="line"/>
      <point x="58" y="750" type="line"/>
      <point x="58" y="0" type="line"/>
    </contour>
    <contour>
      <point x="188" y="550" type="line"/>
      <point x="309" y="550" type="line" smooth="yes"/>
      <point x="430" y="550"/>
      <point x="430" y="450"/>
      <point x="430" y="450" type="curve"/>
      <point x="430" y="451"/>
      <point x="429" y="351"/>
      <point x="309" y="351" type="curve" smooth="yes"/>
      <point x="188" y="351" type="line"/>
    </contour>
  </outline>
</glyph>
<glyph name="idotless" format="1">
  <advance width="618"/>
  <unicode hex="0131"/>
  <outline>
    <contour>
      <point x="561" y="0" type="line"/>
      <point x="561" y="110" type="line"/>
      <point x="374" y="110" type="line"/>
      <point x="374" y="500" type="line"/>
      <point x="103" y="500" type="line"/>
      <point x="103" y="390" type="line"/>
      <point x="244" y="390" type="line"/>
      <point x="244" y="110" type="line"/>
      <point x="58" y="110" type="line"/>
      <point x="58" y="0" type="line"/>
    </contour>
    <contour>
      <point x="561" y="0" type="move" name="ogonek"/>
    </contour>
    <contour>
      <point x="309" y="0" type="move" name="bottom"/>
    </contour>
    <contour>
      <point x="309" y="500" type="move" name="top"/>
    </contour>
  </outline>
</glyph>
<glyph name="OE" format="1">
  <advance width="618"/>
  <unicode hex="0152"/>
  <note>
    OE
  </note>
  <outline>
    <contour>
      <point x="258" y="0"/>
      <point x="274" y="1"/>
      <point x="288" y="4" type="curve"/>
      <point x="288" y="0" type="line"/>
      <point x="560" y="0" type="line"/>
      <point x="560" y="110" type="line"/>
      <point x="418" y="110" type="line"/>
      <point x="418" y="320" type="line"/>
      <point x="514" y="320" type="line"/>
      <point x="514" y="430" type="line"/>
      <point x="418" y="430" type="line"/>
      <point x="418" y="640" type="line"/>
      <point x="560" y="640" type="line"/>
      <point x="560" y="750" type="line"/>
      <point x="288" y="750" type="line"/>
      <point x="288" y="747" type="line"/>
      <point x="275" y="749"/>
      <point x="258" y="750"/>
      <point x="238" y="750" type="curve" smooth="yes"/>
      <point x="97" y="750"/>
      <point x="58" y="659"/>
      <point x="58" y="375" type="curve" smooth="yes"/>
      <point x="58" y="91"/>
      <point x="97" y="0"/>
      <point x="238" y="0" type="curve" smooth="yes"/>
    </contour>
    <contour>
      <point x="211" y="110"/>
      <point x="188" y="192"/>
      <point x="188" y="375" type="curve" smooth="yes"/>
      <point x="188" y="558"/>
      <point x="211" y="640"/>
      <point x="238" y="640" type="curve" smooth="yes"/>
      <point x="264" y="640"/>
      <point x="288" y="553"/>
      <point x="288" y="375" type="curve" smooth="yes"/>
      <point x="288" y="176"/>
      <point x="267" y="110"/>
      <point x="238" y="110" type="curve" smooth="yes"/>
    </contour>
  </outline>
</glyph>
<glyph name="oe" format="1">
  <advance width="618"/>
  <unicode hex="0153"/>
  <note>
    oe
  </note>
  <outline>
    <contour>
      <point x="264" y="0"/>
      <point x="305" y="0"/>
      <point x="328" y="17" type="curve"/>
      <point x="366" y="8"/>
      <point x="439" y="-1"/>
      <point x="560" y="0" type="curve"/>
      <point x="560" y="94" type="line"/>
      <point x="476" y="94" type="line" smooth="yes"/>
      <point x="376" y="94"/>
      <point x="374" y="98"/>
      <point x="374" y="202" type="curve"/>
      <point x="374" y="197" type="line"/>
      <point x="560" y="197" type="line"/>
      <point x="560" y="250" type="line" smooth="yes"/>
      <point x="560" y="486"/>
      <point x="556" y="500"/>
      <point x="404" y="500" type="curve" smooth="yes"/>
      <point x="358" y="500"/>
      <point x="326" y="495"/>
      <point x="306" y="485" type="curve"/>
      <point x="291" y="488"/>
      <point x="260" y="500"/>
      <point x="210" y="500" type="curve" smooth="yes"/>
      <point x="60" y="500"/>
      <point x="58" y="491"/>
      <point x="58" y="250" type="curve" smooth="yes"/>
      <point x="58" y="11"/>
      <point x="58" y="0"/>
      <point x="210" y="0" type="curve" smooth="yes"/>
    </contour>
    <contour>
      <point x="174" y="94"/>
      <point x="172" y="97"/>
      <point x="172" y="250" type="curve" smooth="yes"/>
      <point x="172" y="387"/>
      <point x="177" y="394"/>
      <point x="210" y="394" type="curve" smooth="yes"/>
      <point x="243" y="394"/>
      <point x="244" y="401"/>
      <point x="244" y="250" type="curve" smooth="yes"/>
      <point x="244" y="97"/>
      <point x="242" y="94"/>
      <point x="210" y="94" type="curve" smooth="yes"/>
    </contour>
    <contour>
      <point x="374" y="354" type="line" smooth="yes"/>
      <point x="374" y="397"/>
      <point x="373" y="394"/>
      <point x="404" y="394" type="curve" smooth="yes"/>
      <point x="444" y="394"/>
      <point x="445" y="398"/>
      <point x="445" y="303" type="curve"/>
      <point x="374" y="303" type="line"/>
    </contour>
  </outline>
</glyph>
<glyph name="jdotless" format="1">
  <advance width="618"/>
  <unicode hex="0237"/>
  <outline>
    <contour>
      <point x="534" y="-250"/>
      <point x="550" y="-78"/>
      <point x="550" y="-35" type="curve" smooth="yes"/>
      <point x="550" y="500" type="line"/>
      <point x="138" y="500" type="line"/>
      <point x="138" y="390" type="line"/>
      <point x="420" y="390" type="line"/>
      <point x="420" y="-35" type="line" smooth="yes"/>
      <point x="420" y="-110"/>
      <point x="385" y="-140"/>
      <point x="299" y="-140" type="curve" smooth="yes"/>
      <point x="217" y="-140"/>
      <point x="183" y="-115"/>
      <point x="123" y="-87" type="curve"/>
      <point x="71" y="-183" type="line"/>
      <point x="132" y="-214"/>
      <point x="212" y="-250"/>
      <point x="299" y="-250" type="curve" smooth="yes"/>
    </contour>
  </outline>
</glyph>
<glyph name="circumflexcomb" format="1">
  <advance width="618"/>
  <unicode hex="0302"/>
  <outline>
    <contour>
      <point x="227" y="535" type="line"/>
      <point x="309" y="641" type="line"/>
      <point x="391" y="535" type="line"/>
      <point x="528" y="535" type="line"/>
      <point x="367" y="750" type="line"/>
      <point x="251" y="750" type="line"/>
      <point x="89" y="535" type="line"/>
    </contour>
    <contour>
      <point x="308" y="500" type="move" name="_top"/>
    </contour>
  </outline>
</glyph>
<glyph name="brevecomb" format="1">
  <advance width="618"/>
  <unicode hex="0306"/>
  <outline>
    <contour>
      <point x="483" y="535"/>
      <point x="523" y="672"/>
      <point x="520" y="750" type="curve"/>
      <point x="390" y="750" type="line"/>
      <point x="393" y="679"/>
      <point x="358" y="638"/>
      <point x="309" y="638" type="curve" smooth="yes"/>
      <point x="259" y="638"/>
      <point x="225" y="677"/>
      <point x="228" y="750" type="curve"/>
      <point x="97" y="750" type="line"/>
      <point x="93" y="677"/>
      <point x="135" y="535"/>
      <point x="309" y="535" type="curve" smooth="yes"/>
    </contour>
    <contour>
      <point x="308" y="500" type="move" name="_top"/>
    </contour>
  </outline>
</glyph>
<glyph name="ringcomb" format="1">
  <advance width="618"/>
  <unicode hex="030A"/>
  <outline>
    <contour>
      <point x="454" y="525"/>
      <point x="454" y="638"/>
      <point x="454" y="638" type="curve" smooth="yes"/>
      <point x="454" y="638"/>
      <point x="454" y="750"/>
      <point x="309" y="750" type="curve" smooth="yes"/>
      <point x="166" y="750"/>
      <point x="164" y="641"/>
      <point x="164" y="638" type="curve" smooth="yes"/>
      <point x="164" y="635"/>
      <point x="166" y="525"/>
      <point x="309" y="525" type="curve" smooth="yes"/>
    </contour>
    <contour>
      <point x="283" y="608"/>
      <point x="268" y="617"/>
      <point x="267" y="638" type="curve"/>
      <point x="268" y="659"/>
      <point x="283" y="668"/>
      <point x="309" y="668" type="curve" smooth="yes"/>
      <point x="335" y="668"/>
      <point x="350" y="659"/>
      <point x="351" y="638" type="curve"/>
      <point x="350" y="617"/>
      <point x="335" y="608"/>
      <point x="309" y="608" type="curve" smooth="yes"/>
    </contour>
    <contour>
      <point x="308" y="500" type="move" name="_top"/>
    </contour>
  </outline>
</glyph>
<glyph name="commaaccentcomb" format="1">
  <advance width="618"/>
  <unicode hex="0326"/>
  <outline>
    <component base="comma" yOffset="-230"/>
    <contour>
      <point x="308" y="0" type="move" name="_bottom"/>
    </contour>
  </outline>
</glyph>
<glyph name="bitcoin" format="1">
  <advance width="618"/>
  <unicode hex="20BF"/>
  <outline>
    <contour>
      <point x="237" y="-210" type="line"/>
      <point x="237" y="-100" type="line"/>
      <point x="274" y="-100" type="line"/>
      <point x="274" y="-210" type="line"/>
      <point x="394" y="-210" type="line"/>
      <point x="394" y="-91" type="line"/>
      <point x="567" y="-50"/>
      <point x="568" y="94"/>
      <point x="568" y="120" type="curve"/>
      <point x="568" y="120"/>
      <point x="561" y="218"/>
      <point x="465" y="279" type="curve"/>
      <point x="502" y="307"/>
      <point x="522" y="355"/>
      <point x="523" y="410" type="curve"/>
      <point x="523" y="410"/>
      <point x="523" y="557"/>
      <point x="394" y="602" type="curve"/>
      <point x="394" y="724" type="line"/>
      <point x="274" y="724" type="line"/>
      <point x="274" y="614" type="line"/>
      <point x="237" y="614" type="line"/>
      <point x="237" y="724" type="line"/>
      <point x="117" y="724" type="line"/>
      <point x="117" y="614" type="line"/>
      <point x="50" y="614" type="line"/>
      <point x="50" y="-100" type="line"/>
      <point x="117" y="-100" type="line"/>
      <point x="117" y="-210" type="line"/>
    </contour>
    <contour>
      <point x="180" y="230" type="line"/>
      <point x="317" y="230" type="line" smooth="yes"/>
      <point x="437" y="230"/>
      <point x="438" y="120"/>
      <point x="438" y="120" type="curve"/>
      <point x="438" y="120"/>
      <point x="441" y="10"/>
      <point x="317" y="10" type="curve" smooth="yes"/>
      <point x="180" y="10" type="line"/>
    </contour>
    <contour>
      <point x="180" y="504" type="line"/>
      <point x="317" y="504" type="line" smooth="yes"/>
      <point x="393" y="504"/>
      <point x="393" y="410"/>
      <point x="393" y="410" type="curve" smooth="yes"/>
      <point x="393" y="410"/>
      <point x="393" y="317"/>
      <point x="317" y="317" type="curve" smooth="yes"/>
      <point x="180" y="317" type="line"/>
    </contour>
  </outline>
</glyph>
<glyph name="uni2585" format="1">
  <advance width="618"/>
  <unicode hex="2585"/>
  <note>
    uni2585
  </note>
  <outline>
    <contour>
      <point x="618" y="-375" type="line"/>
      <point x="618" y="406" type="line"/>
      <point x="0" y="406" type="line"/>
      <point x="0" y="-375" type="line"/>
    </contour>
  </outline>
</glyph>
<glyph name="filledbox" format="1">
  <advance width="618"/>
  <unicode hex="25A0"/>
  <note>
    filledbox
  </note>
  <outline>
    <contour>
      <point x="618" y="0" type="line"/>
      <point x="618" y="617" type="line"/>
      <point x="0" y="617" type="line"/>
      <point x="0" y="0" type="line"/>
    </contour>
  </outline>
</glyph>
<glyph name="triagdn" format="1">
  <advance width="618"/>
  <unicode hex="25BC"/>
  <note>
    triagdn
  </note>
  <outline>
    <contour>
      <point x="618" y="617" type="line"/>
      <point x="0" y="617" type="line"/>
      <point x="309" y="0" type="line"/>
    </contour>
  </outline>
</glyph>
<glyph name="uni25BE" format="1">
  <advance width="618"/>
  <unicode hex="25BE"/>
  <note>
    uni25BE
  </note>
  <outline>
    <contour>
      <point x="484" y="550" type="line"/>
      <point x="134" y="550" type="line"/>
      <point x="309" y="200" type="line"/>
    </contour>
  </outline>
</glyph>
<glyph name="triaglf" format="1">
  <advance width="618"/>
  <unicode hex="25C4"/>
  <note>
    triaglf
  </note>
  <outline>
    <contour>
      <point x="618" y="549" type="line"/>
      <point x="0" y="373" type="line"/>
      <point x="618" y="199" type="line"/>
    </contour>
  </outline>
</glyph>
